<?xml version="1.0" standalone="no"?>
<!DOCTYPE svg PUBLIC "-//W3C//DTD SVG 20010904//EN"
 "http://www.w3.org/TR/2001/REC-SVG-20010904/DTD/svg10.dtd">
<svg version="1.0" xmlns="http://www.w3.org/2000/svg"
 width="700.000000pt" height="700.000000pt" viewBox="0 0 700.000000 700.000000"
 preserveAspectRatio="xMidYMid meet">
<metadata>
Created by potrace 1.14, written by Peter Selinger 2001-2017
</metadata>
<g transform="translate(0.000000,700.000000) scale(0.100000,-0.100000)"
fill="#000000" stroke="none">
<path d="M2564 6065 c-68 -40 -69 -47 -69 -420 1 -465 -27 -435 402 -435 l288
0 1 -185 0 -185 -448 0 c-246 0 -450 0 -453 0 -3 -1 -28 -8 -56 -16 -133 -40
-234 -150 -259 -282 -5 -26 -8 -777 -7 -1672 l2 -1625 33 -67 c40 -83 119
-158 200 -189 l57 -23 1010 -2 c556 -1 1013 -2 1018 -3 4 -1 7 -10 7 -22 0
-36 49 -124 92 -167 45 -45 103 -76 161 -87 21 -4 41 -15 46 -23 9 -15 11 -15
28 0 10 8 34 19 53 23 50 11 110 41 148 75 l34 29 47 -24 c196 -103 431 9 466
224 15 85 -1 161 -52 252 -2 3 17 31 42 63 27 36 52 81 61 115 9 31 23 64 32
74 14 15 14 19 0 35 -9 9 -19 33 -23 52 -24 115 -119 214 -232 241 -26 7 -55
18 -63 25 -10 9 -20 10 -33 3 -16 -10 -17 56 -17 1318 -1 730 -3 1346 -6 1368
-8 59 -58 157 -105 204 -23 23 -71 56 -108 73 l-66 33 -455 2 c-250 1 -462 2
-470 2 -13 1 -15 26 -14 179 1 97 2 179 3 183 0 3 126 5 278 5 186 -1 288 3
311 11 47 16 78 48 89 91 5 20 9 179 9 352 -1 296 -2 317 -21 349 -11 18 -36
42 -55 52 -33 18 -76 19 -950 19 l-915 0 -41 -25z m1013 -197 c-3 -8 -6 -5 -6
6 -1 11 2 17 5 13 3 -3 4 -12 1 -19z m0 -40 c-3 -8 -6 -5 -6 6 -1 11 2 17 5
13 3 -3 4 -12 1 -19z m0 -40 c-3 -8 -6 -5 -6 6 -1 11 2 17 5 13 3 -3 4 -12 1
-19z m0 -115 c-3 -10 -5 -4 -5 12 0 17 2 24 5 18 2 -7 2 -21 0 -30z m-6 -86
c-10 -9 -11 -8 -5 6 3 10 9 15 12 12 3 -3 0 -11 -7 -18z m6 -39 c-3 -8 -6 -5
-6 6 -1 11 2 17 5 13 3 -3 4 -12 1 -19z m-810 -30 c-3 -8 -6 -5 -6 6 -1 11 2
17 5 13 3 -3 4 -12 1 -19z m0 -50 c-3 -7 -5 -2 -5 12 0 14 2 19 5 13 2 -7 2
-19 0 -25z m810 -35 c-3 -10 -5 -4 -5 12 0 17 2 24 5 18 2 -7 2 -21 0 -30z
m-810 -75 c-3 -7 -5 -2 -5 12 0 14 2 19 5 13 2 -7 2 -19 0 -25z m960 -220 c-3
-7 -5 -2 -5 12 0 14 2 19 5 13 2 -7 2 -19 0 -25z m0 -150 c-3 -7 -5 -2 -5 12
0 14 2 19 5 13 2 -7 2 -19 0 -25z m0 -85 c-3 -10 -5 -4 -5 12 0 17 2 24 5 18
2 -7 2 -21 0 -30z m0 -100 c1 -24 0 -25 -6 -8 -7 17 -6 35 2 35 2 0 3 -12 4
-27z m7 -78 c3 -8 1 -15 -4 -15 -6 0 -10 7 -10 15 0 8 2 15 4 15 2 0 6 -7 10
-15z m43 -11 c-3 -3 -12 -4 -19 -1 -8 3 -5 6 6 6 11 1 17 -2 13 -5z m76 -1
c-7 -2 -19 -2 -25 0 -7 3 -2 5 12 5 14 0 19 -2 13 -5z m44 1 c-3 -3 -12 -4
-19 -1 -8 3 -5 6 6 6 11 1 17 -2 13 -5z m76 -1 c-7 -2 -19 -2 -25 0 -7 3 -2 5
12 5 14 0 19 -2 13 -5z m164 1 c-3 -3 -12 -4 -19 -1 -8 3 -5 6 6 6 11 1 17 -2
13 -5z m76 -1 c-7 -2 -19 -2 -25 0 -7 3 -2 5 12 5 14 0 19 -2 13 -5z m164 1
c-3 -3 -12 -4 -19 -1 -8 3 -5 6 6 6 11 1 17 -2 13 -5z m76 -1 c-7 -2 -19 -2
-25 0 -7 3 -2 5 12 5 14 0 19 -2 13 -5z m44 1 c-3 -3 -12 -4 -19 -1 -8 3 -5 6
6 6 11 1 17 -2 13 -5z m76 -1 c-7 -2 -19 -2 -25 0 -7 3 -2 5 12 5 14 0 19 -2
13 -5z m80 0 c-7 -2 -19 -2 -25 0 -7 3 -2 5 12 5 14 0 19 -2 13 -5z m80 0 c-7
-2 -19 -2 -25 0 -7 3 -2 5 12 5 14 0 19 -2 13 -5z m67 -13 c8 -5 11 -10 5 -10
-5 0 -17 5 -25 10 -8 5 -10 10 -5 10 6 0 17 -5 25 -10z m75 -50 c10 -11 16
-20 13 -20 -3 0 -13 9 -23 20 -10 11 -16 20 -13 20 3 0 13 -9 23 -20z m-240
-2801 c13 -5 1 -7 -33 -5 -245 15 -411 -209 -327 -439 l7 -20 -14 20 c-44 62
-47 189 -6 275 40 82 90 130 173 163 42 17 164 21 200 6z m50 -19 c3 -6 -1 -7
-9 -4 -18 7 -21 14 -7 14 6 0 13 -4 16 -10z m-60 -119 c25 -11 45 -22 45 -26
0 -3 -15 2 -32 11 -19 10 -56 18 -86 18 -42 0 -60 -6 -95 -30 -23 -16 -50 -45
-59 -64 -10 -19 -18 -29 -18 -22 0 20 20 55 48 81 55 51 128 63 197 32z m-248
-163 c-3 -7 -5 -2 -5 12 0 14 2 19 5 13 2 -7 2 -19 0 -25z m333 -2 c0 -2 -7
-7 -16 -10 -8 -3 -12 -2 -9 4 6 10 25 14 25 6z m-100 -90 c0 -2 -8 -10 -17
-17 -16 -13 -17 -12 -4 4 13 16 21 21 21 13z m-57 -60 c-10 -13 -20 -22 -22
-20 -4 4 29 44 36 44 2 0 -4 -11 -14 -24z m-255 -41 c-3 -3 -9 2 -12 12 -6 14
-5 15 5 6 7 -7 10 -15 7 -18z m932 -356 c-22 -76 -97 -141 -163 -141 -35 0
-122 21 -115 27 2 3 21 0 43 -6 89 -25 178 20 217 109 22 50 30 55 18 11z"/>
<path d="M5362 5758 c-17 -62 -37 -135 -43 -161 -8 -34 -18 -51 -33 -57 -21
-8 -200 -58 -233 -65 -10 -2 -29 -8 -43 -13 -29 -11 -40 -7 132 -52 182 -47
162 -29 202 -190 42 -167 51 -187 62 -139 10 42 7 32 45 171 l31 117 42 9 c22
6 84 22 136 36 104 30 120 34 135 36 23 2 -29 19 -167 55 l-147 39 -11 45 c-7
26 -13 53 -15 61 -2 8 -13 50 -25 92 -11 43 -23 87 -25 99 -2 12 -6 24 -8 26
-3 2 -18 -47 -35 -109z"/>
<path d="M1413 5305 c-23 -16 -31 -58 -15 -82 21 -33 82 -32 104 1 36 52 -37
118 -89 81z"/>
<path d="M5649 5150 c-1 -11 -3 -24 -4 -30 -1 -5 -3 -16 -4 -22 -3 -27 -19
-38 -62 -44 -73 -10 -76 -20 -10 -34 56 -12 61 -15 72 -48 6 -19 12 -46 12
-59 0 -34 10 -20 27 39 15 51 16 52 75 68 63 18 61 22 -14 35 -45 8 -47 9 -56
47 -4 18 -9 36 -10 41 -1 4 -3 12 -4 17 -2 19 -21 10 -22 -10z"/>
<path d="M1285 3335 c-26 -108 -26 -109 -101 -126 l-69 -16 72 -17 71 -18 11
-43 c6 -24 11 -53 11 -64 0 -41 15 -20 30 41 16 66 12 63 110 89 l45 12 -68
18 c-38 9 -70 19 -72 21 -1 1 -9 32 -18 68 -13 60 -15 62 -22 35z"/>
<path d="M5447 2176 c-119 -44 -153 -188 -65 -277 38 -37 70 -51 124 -51 128
0 206 139 143 252 -41 72 -126 104 -202 76z m103 -106 c51 -51 -3 -132 -72
-108 -43 15 -54 73 -21 111 21 23 68 22 93 -3z"/>
<path d="M1615 1435 c-5 -27 -9 -52 -10 -55 -1 -3 -5 -22 -9 -42 -9 -41 -8
-40 -136 -72 l-55 -14 40 -10 c37 -10 112 -26 127 -27 11 0 17 -10 23 -40 3
-17 11 -57 18 -90 l13 -60 22 81 c12 44 22 85 22 92 0 12 12 17 98 33 34 6 65
15 67 19 3 4 -17 13 -43 19 -122 31 -119 29 -126 64 -3 17 -14 59 -24 92 l-19
60 -8 -50z"/>
</g>
</svg>
